<?xml version="1.0" encoding="UTF-8"?> <svg xmlns="http://www.w3.org/2000/svg" xmlns:xlink="http://www.w3.org/1999/xlink" id="Layer_1" data-name="Layer 1" viewBox="0 0 206.88 28"><defs><linearGradient id="linear-gradient" x1="821.52" y1="1008.38" x2="821.52" y2="954.15" gradientTransform="matrix(1 0 0 -1 0 1608)" gradientUnits="userSpaceOnUse"><stop offset=".01" stop-color="#00bfe1"></stop><stop offset=".97" stop-color="#2738ab"></stop></linearGradient><linearGradient id="linear-gradient-2" x1="812.04" y1="988.78" x2="815.53" y2="985.86" gradientTransform="matrix(1 0 0 -1 -.94 1607.39)" gradientUnits="userSpaceOnUse"><stop offset=".03" stop-color="#1b1464"></stop><stop offset="1" stop-color="#1b1464" stop-opacity="0"></stop></linearGradient><linearGradient id="linear-gradient-3" x1="3638.35" y1="-148.14" x2="3636.69" y2="-150.5" gradientTransform="matrix(-1 0 0 1 4463 776.09)" xlink:href="#linear-gradient-2"></linearGradient><linearGradient id="linear-gradient-4" x1="3643.04" y1="-169.79" x2="3644.29" y2="-166.7" gradientTransform="matrix(-1 0 0 1 4463 776.09)" xlink:href="#linear-gradient-2"></linearGradient><linearGradient id="linear-gradient-5" x1="842.09" y1="1008.38" x2="842.09" y2="954.15" xlink:href="#linear-gradient"></linearGradient><linearGradient id="linear-gradient-6" x1="3808.62" y1="265.13" x2="3812.11" y2="262.21" gradientTransform="matrix(-1 0 0 1 4661.13 350.66)" xlink:href="#linear-gradient-2"></linearGradient><linearGradient id="linear-gradient-7" x1="641.78" y1="575.52" x2="640.11" y2="573.16" gradientTransform="matrix(1 0 0 -1 197.19 1181.96)" xlink:href="#linear-gradient-2"></linearGradient><linearGradient id="linear-gradient-8" x1="646.46" y1="553.87" x2="647.71" y2="556.96" gradientTransform="matrix(1 0 0 -1 197.19 1181.96)" xlink:href="#linear-gradient-2"></linearGradient><style>.cls-1{fill:#fff}</style></defs><path class="cls-1" d="M865 606.06h2.37v18.64H865zM870.22 611.18H872l.6 1.53a8.53 8.53 0 014.82-1.77c2.84 0 4.16 2.1 4.16 4.44v9.3h-2.38v-9.33a2 2 0 00-2.07-2.26 8.53 8.53 0 00-4.56 1.38v10.23h-2.38v-13.54h.06zM883.23 611.61l2.42-.43v-1.26a5 5 0 015.18-5.25 22.34 22.34 0 015.17.85V607l-4.5-.24c-1.57-.09-3.48.53-3.48 3.2v1.22l9.15.27v13.26h-2.39v-11.4H888v11.4h-2.37v-11.4h-2.43v-1.7zM899.9 611.18h1.74l.6 1.53a8.59 8.59 0 014.82-1.77c2.84 0 4.16 2.1 4.16 4.44v9.3h-2.37v-9.33a2 2 0 00-2.07-2.26 8.59 8.59 0 00-4.57 1.38v10.23h-2.37v-13.54h.06zM913.64 607.42a.58.58 0 01.62-.64h1.67a.59.59 0 01.6.64v1.63a.54.54 0 01-.6.57h-1.67a.58.58 0 01-.62-.57zm.23 3.76h2.37v13.53h-2.37zM918.19 611.67l2.44-.52.49-3.77H923v3.77h3.73v2.1H923v6.43c0 2.15.56 2.63 1.39 2.87 0 0 2 .52 2.13.52v1.58H924c-2 0-3.36-1.22-3.36-4.82v-6.59h-2.44v-1.57zM934.41 624.68l-1.32 4h2.61l5.58-17.49h-2.56l-3.59 11.26a1.27 1.27 0 01-1.6-1l-3-10.26H928l3.15 10.54c.74 2.66 2.36 2.95 3.26 2.95zM945.41 606.06l5.12 14.94 4.29-14.94h2.6l-1.62 5.64 3.3 9.42 4.42-15.06h2.55l-5.69 18.64h-2.51l-3.24-9-2.87 9h-2.51l-6.4-18.64zM965.82 620a3.25 3.25 0 013.56-3.47h5.24v-1.49c0-1.53-.8-2-2-2-1.67 0-4.23.15-6.34.32v-1.61a22.77 22.77 0 016.52-.81c2.34 0 4.21 1.08 4.21 4v9.73h-1.79l-.56-1.61a12.6 12.6 0 01-5.25 1.75 3.34 3.34 0 01-3.55-3.43V620zm3.8 2.75a18.28 18.28 0 005-1.22v-3.32l-5 .36a1.45 1.45 0 00-1.41 1.58v1.1c-.02 1.13.6 1.45 1.41 1.45zM979.62 604.75H982v15c0 2.15.56 2.63 1.38 2.84 0 0 2 .52 2.14.52v1.58h-2.44c-2.05 0-3.42-1.22-3.42-4.81v-15.13zM987.38 604.75h2.38v15c0 2.15.55 2.63 1.38 2.84 0 0 2 .52 2.13.52v1.58h-2.45c-2.05 0-3.42-1.22-3.42-4.81v-15.13zM999.84 611.09c3.39 0 5.34.33 5.34 4.82 0 2.07-1.12 3.18-3.59 3.18h-5.34c0 3 .69 3.59 2.67 3.59a38.31 38.31 0 006-.27v1.7a23.36 23.36 0 01-6.58.72c-3.47 0-4.49-1.74-4.49-7 .04-5.93 1.75-6.74 5.99-6.74zm1.53 5.95c1 0 1.48-.41 1.48-1.18 0-2.41-.43-2.65-2.91-2.65-2.63 0-3.68 0-3.65 3.84zM1006.64 611.67l2.43-.52.5-3.77h1.86v3.77h4.06v2.1h-4.06v6.43c0 2.15.56 2.63 1.38 2.87 0 0 2.29.52 2.47.52v1.58h-2.83c-2 0-3.36-1.22-3.36-4.82v-6.59h-2.44v-1.55z" transform="translate(-808.61 -603.2)"></path><path d="M833.92 609.93a.34.34 0 00-.24-.21.34.34 0 00-.36.1l-.74.73-.11.12-5.86-5.82a5.69 5.69 0 00-8 0l-8.33 8.35a5.7 5.7 0 000 8l8.34 8.31a5.67 5.67 0 008 0l1.9-1.9a2.85 2.85 0 00.71-1 2.21 2.21 0 00.11-1.11 2.42 2.42 0 00-.4-1 2.21 2.21 0 00-.29-.33 2.37 2.37 0 00-3.34 0l-2 2a.8.8 0 01-.45.24.74.74 0 01-.49 0 1.24 1.24 0 01-.43-.27l-8.29-8.29a.82.82 0 01-.24-.46.93.93 0 01.11-.64v-.05c.1-.1 8.36-8.34 8.43-8.42a1.07 1.07 0 01.47-.25.55.55 0 01.18 0 .91.91 0 01.64.27l5.85 5.8-.29.29-.58.58a.36.36 0 00.12.6l5.26.65a.78.78 0 00.58-.25.79.79 0 00.24-.59z" transform="translate(-808.61 -603.2)" fill="url(#linear-gradient)"></path><path d="M813.56 617.78a.92.92 0 01-.07-1s-2.75 3-1.43 6.3l1.75 1.72 2.53-4.2z" transform="translate(-808.61 -603.2)" style="isolation:isolate" fill="url(#linear-gradient-2)" opacity=".49"></path><path d="M822.09 626.31a6.07 6.07 0 006.49 1.26 2.67 2.67 0 00.64-1c-.46-.23-3.79-2.6-3.79-2.6l-2 2a1 1 0 01-1.34.34z" transform="translate(-808.61 -603.2)" style="isolation:isolate" fill="url(#linear-gradient-3)" opacity=".49"></path><path d="M820.06 610.16l2-2a.92.92 0 011.08 0s-3.3-2.71-6.81-1l-1 1z" transform="translate(-808.61 -603.2)" style="isolation:isolate" fill="url(#linear-gradient-4)" opacity=".49"></path><path d="M829.69 624.47a.34.34 0 00.25.21.32.32 0 00.35-.1l.74-.73.11-.12 5.86 5.82a5.69 5.69 0 008 0l8.34-8.35a5.72 5.72 0 000-8l-8.34-8.35a5.67 5.67 0 00-8 0l-1.9 1.9a2.83 2.83 0 00-.7 1 2.21 2.21 0 00-.12 1.11 2.42 2.42 0 00.4 1.05 3 3 0 00.29.33 2.37 2.37 0 003.34 0l2-2a.83.83 0 01.45-.24.74.74 0 01.49 0 1.16 1.16 0 01.43.27l8.29 8.29a.82.82 0 01.24.46.93.93 0 01-.11.64v.05c-.1.1-8.36 8.34-8.43 8.42a1.07 1.07 0 01-.47.25.55.55 0 01-.18 0 .91.91 0 01-.64-.27l-5.84-5.8.28-.29.58-.58a.36.36 0 00-.12-.6l-5.26-.65a.84.84 0 00-.82.84z" transform="translate(-808.61 -603.2)" fill="url(#linear-gradient-5)"></path><path d="M850.05 616.62a.92.92 0 01.07 1s2.75-3 1.43-6.3l-1.74-1.72-2.54 4.2z" transform="translate(-808.61 -603.2)" style="isolation:isolate" fill="url(#linear-gradient-6)" opacity=".49"></path><path d="M841.52 608.09a6.07 6.07 0 00-6.49-1.26 2.57 2.57 0 00-.63.95c.46.23 3.78 2.6 3.78 2.6l2-2a1 1 0 011.34-.29z" transform="translate(-808.61 -603.2)" style="isolation:isolate" fill="url(#linear-gradient-7)" opacity=".49"></path><path d="M843.55 624.24l-2 2a.92.92 0 01-1.08 0s3.3 2.71 6.81 1l1-1z" transform="translate(-808.61 -603.2)" style="isolation:isolate" fill="url(#linear-gradient-8)" opacity=".49"></path></svg> 