<svg width="182" height="187" viewBox="0 0 182 187" fill="none" xmlns="http://www.w3.org/2000/svg">
<g filter="url(#filter0_bdddi_1_3250)">
<circle cx="91" cy="76" r="71" fill="url(#paint0_linear_1_3250)" fill-opacity="0.2" shape-rendering="crispEdges"/>
<circle cx="91" cy="76" r="70.5" stroke="white" stroke-opacity="0.07" shape-rendering="crispEdges"/>
</g>
<path d="M144 76C144 105.271 120.495 129 91.5 129C62.5051 129 39 105.271 39 76C39 46.7289 62.5051 23 91.5 23C120.495 23 144 46.7289 144 76Z" stroke="white" stroke-opacity="0.2" stroke-width="5" stroke-dasharray="0.5 5"/>
<path d="M106.021 131.956C75.1055 140.24 43.3277 121.893 35.0438 90.977C26.7599 60.061 45.1068 28.2832 76.0227 19.9993C106.939 11.7154 138.716 30.0623 147 60.9783C155.284 91.8943 136.937 123.672 106.021 131.956ZM76.7727 22.7983C47.4025 30.668 29.973 60.8569 37.8427 90.227C45.7124 119.597 75.9013 137.027 105.271 129.157C134.642 121.287 152.071 91.0984 144.201 61.7283C136.332 32.3581 106.143 14.9285 76.7727 22.7983Z" fill="white" fill-opacity="0.1"/>
<path d="M106.021 131.956C75.1055 140.24 43.3277 121.893 35.0438 90.977C26.7599 60.061 45.1068 28.2832 76.0227 19.9993C106.939 11.7154 138.716 30.0623 147 60.9783C155.284 91.8943 136.937 123.672 106.021 131.956ZM76.7727 22.7983C47.4025 30.668 29.973 60.8569 37.8427 90.227C45.7124 119.597 75.9013 137.027 105.271 129.157C134.642 121.287 152.071 91.0984 144.201 61.7283C136.332 32.3581 106.143 14.9285 76.7727 22.7983Z" fill="url(#paint1_angular_1_3250)"/>
<path d="M91.0221 18.6042C91.0221 18.2841 91.2818 18.0243 91.6018 18.0275C103.502 18.1465 115.083 21.9269 124.766 28.8618C134.606 35.9094 141.993 45.8611 145.89 57.3203C149.786 68.7796 149.997 81.1714 146.493 92.7567C143.045 104.157 136.169 114.213 126.808 121.562C126.556 121.76 126.192 121.712 125.997 121.458C125.802 121.205 125.85 120.841 126.101 120.643C135.27 113.442 142.005 103.59 145.384 92.4211C148.818 81.0675 148.611 68.9236 144.792 57.6935C140.974 46.4634 133.735 36.7107 124.091 29.8042C114.605 23.0101 103.26 19.3056 91.6018 19.1867C91.2818 19.1834 91.0221 18.9242 91.0221 18.6042Z" fill="url(#paint2_linear_1_3250)"/>
<path d="M106.021 131.956C75.1055 140.24 43.3277 121.893 35.0438 90.977C26.7599 60.061 45.1068 28.2832 76.0227 19.9993C106.939 11.7154 138.716 30.0623 147 60.9783C155.284 91.8943 136.937 123.672 106.021 131.956ZM76.7727 22.7983C47.4025 30.668 29.973 60.8569 37.8427 90.227C45.7124 119.597 75.9013 137.027 105.271 129.157C134.642 121.287 152.071 91.0984 144.201 61.7283C136.332 32.3581 106.143 14.9285 76.7727 22.7983Z" stroke="white" stroke-opacity="0.1"/>
<path d="M106.021 131.956C75.1055 140.24 43.3277 121.893 35.0438 90.977C26.7599 60.061 45.1068 28.2832 76.0227 19.9993C106.939 11.7154 138.716 30.0623 147 60.9783C155.284 91.8943 136.937 123.672 106.021 131.956ZM76.7727 22.7983C47.4025 30.668 29.973 60.8569 37.8427 90.227C45.7124 119.597 75.9013 137.027 105.271 129.157C134.642 121.287 152.071 91.0984 144.201 61.7283C136.332 32.3581 106.143 14.9285 76.7727 22.7983Z" stroke="url(#paint3_linear_1_3250)"/>
<path d="M106.021 131.956C75.1055 140.24 43.3277 121.893 35.0438 90.977C26.7599 60.061 45.1068 28.2832 76.0227 19.9993C106.939 11.7154 138.716 30.0623 147 60.9783C155.284 91.8943 136.937 123.672 106.021 131.956ZM76.7727 22.7983C47.4025 30.668 29.973 60.8569 37.8427 90.227C45.7124 119.597 75.9013 137.027 105.271 129.157C134.642 121.287 152.071 91.0984 144.201 61.7283C136.332 32.3581 106.143 14.9285 76.7727 22.7983Z" stroke="white" stroke-opacity="0.1"/>
<path d="M106.021 131.956C75.1055 140.24 43.3277 121.893 35.0438 90.977C26.7599 60.061 45.1068 28.2832 76.0227 19.9993C106.939 11.7154 138.716 30.0623 147 60.9783C155.284 91.8943 136.937 123.672 106.021 131.956ZM76.7727 22.7983C47.4025 30.668 29.973 60.8569 37.8427 90.227C45.7124 119.597 75.9013 137.027 105.271 129.157C134.642 121.287 152.071 91.0984 144.201 61.7283C136.332 32.3581 106.143 14.9285 76.7727 22.7983Z" stroke="url(#paint4_linear_1_3250)"/>
<path d="M91.0221 18.6042C91.0221 18.2841 91.2818 18.0243 91.6018 18.0275C103.502 18.1465 115.083 21.9269 124.766 28.8618C134.606 35.9094 141.993 45.8611 145.89 57.3203C149.786 68.7796 149.997 81.1714 146.493 92.7567C143.045 104.157 136.169 114.213 126.808 121.562C126.556 121.76 126.192 121.712 125.997 121.458C125.802 121.205 125.85 120.841 126.101 120.643C135.27 113.442 142.005 103.59 145.384 92.4211C148.818 81.0675 148.611 68.9236 144.792 57.6935C140.974 46.4634 133.735 36.7107 124.091 29.8042C114.605 23.0101 103.26 19.3056 91.6018 19.1867C91.2818 19.1834 91.0221 18.9242 91.0221 18.6042Z" stroke="white" stroke-opacity="0.1"/>
<path d="M91.0221 18.6042C91.0221 18.2841 91.2818 18.0243 91.6018 18.0275C103.502 18.1465 115.083 21.9269 124.766 28.8618C134.606 35.9094 141.993 45.8611 145.89 57.3203C149.786 68.7796 149.997 81.1714 146.493 92.7567C143.045 104.157 136.169 114.213 126.808 121.562C126.556 121.76 126.192 121.712 125.997 121.458C125.802 121.205 125.85 120.841 126.101 120.643C135.27 113.442 142.005 103.59 145.384 92.4211C148.818 81.0675 148.611 68.9236 144.792 57.6935C140.974 46.4634 133.735 36.7107 124.091 29.8042C114.605 23.0101 103.26 19.3056 91.6018 19.1867C91.2818 19.1834 91.0221 18.9242 91.0221 18.6042Z" stroke="url(#paint5_linear_1_3250)"/>
<path d="M73.027 52.767C75.1151 52.7812 77.1463 53.1506 79.1207 53.875C81.1094 54.5852 82.8991 55.75 84.4901 57.3693C86.081 58.9744 87.3452 61.1264 88.2827 63.8253C89.2202 66.5241 89.6889 69.8622 89.6889 73.8395C89.7031 77.5895 89.3054 80.9418 88.4957 83.8963C87.7003 86.8366 86.5568 89.3224 85.0653 91.3537C83.5739 93.3849 81.777 94.9332 79.6747 95.9986C77.5724 97.0639 75.2074 97.5966 72.5795 97.5966C69.8239 97.5966 67.3807 97.0568 65.25 95.9773C63.1335 94.8977 61.4219 93.4205 60.1151 91.5455C58.8082 89.6705 58.0057 87.5256 57.7074 85.1108H65.4844C65.8821 86.8437 66.6918 88.2216 67.9134 89.2443C69.1491 90.2528 70.7045 90.7571 72.5795 90.7571C75.6051 90.7571 77.9347 89.4432 79.5682 86.8153C81.2017 84.1875 82.0185 80.5369 82.0185 75.8636H81.7202C81.0241 77.1136 80.1222 78.1932 79.0142 79.1023C77.9063 79.9972 76.6491 80.6861 75.2429 81.169C73.8509 81.652 72.3736 81.8935 70.8111 81.8935C68.2543 81.8935 65.9531 81.2827 63.9077 80.0611C61.8764 78.8395 60.2642 77.1634 59.071 75.0327C57.892 72.902 57.2955 70.4659 57.2812 67.7244C57.2812 64.8835 57.9347 62.3338 59.2415 60.0753C60.5625 57.8026 62.402 56.0128 64.7599 54.706C67.1179 53.3849 69.8736 52.7386 73.027 52.767ZM73.0483 59.1591C71.5142 59.1591 70.1293 59.5355 68.8935 60.2884C67.6719 61.027 66.706 62.0355 65.9957 63.3139C65.2997 64.5781 64.9517 65.9915 64.9517 67.554C64.9659 69.1023 65.3139 70.5085 65.9957 71.7727C66.6918 73.0369 67.6364 74.0384 68.8295 74.777C70.0369 75.5156 71.4148 75.8849 72.9631 75.8849C74.1136 75.8849 75.1861 75.6648 76.1804 75.2244C77.1747 74.7841 78.0412 74.1733 78.7798 73.392C79.5327 72.5966 80.1151 71.6946 80.527 70.6861C80.9531 69.6776 81.1591 68.6122 81.1449 67.4901C81.1449 65.9986 80.7898 64.6207 80.0795 63.3565C79.3835 62.0923 78.4247 61.0767 77.2031 60.3097C75.9957 59.5426 74.6108 59.1591 73.0483 59.1591ZM109.295 97.5966C106.128 97.5966 103.315 97.0639 100.858 95.9986C98.4148 94.9332 96.4972 93.4773 95.1051 91.6307C93.7273 89.7699 93.0455 87.6605 93.0597 85.3026C93.0455 83.4702 93.4432 81.7869 94.2528 80.2528C95.0625 78.7188 96.1563 77.4403 97.5341 76.4176C98.9261 75.3807 100.474 74.7202 102.179 74.4361V74.1378C99.9347 73.6406 98.1165 72.4972 96.7244 70.7074C95.3466 68.9034 94.6648 66.8224 94.679 64.4645C94.6648 62.2202 95.2898 60.2173 96.554 58.456C97.8182 56.6946 99.5511 55.3097 101.753 54.3011C103.955 53.2784 106.469 52.767 109.295 52.767C112.094 52.767 114.587 53.2784 116.774 54.3011C118.976 55.3097 120.709 56.6946 121.973 58.456C123.251 60.2173 123.891 62.2202 123.891 64.4645C123.891 66.8224 123.188 68.9034 121.781 70.7074C120.389 72.4972 118.592 73.6406 116.391 74.1378V74.4361C118.095 74.7202 119.629 75.3807 120.993 76.4176C122.371 77.4403 123.464 78.7188 124.274 80.2528C125.098 81.7869 125.51 83.4702 125.51 85.3026C125.51 87.6605 124.814 89.7699 123.422 91.6307C122.03 93.4773 120.112 94.9332 117.669 95.9986C115.24 97.0639 112.449 97.5966 109.295 97.5966ZM109.295 91.5028C110.929 91.5028 112.349 91.2259 113.557 90.6719C114.764 90.1037 115.702 89.3082 116.369 88.2855C117.037 87.2628 117.378 86.0838 117.392 84.7486C117.378 83.3565 117.016 82.1278 116.305 81.0625C115.609 79.983 114.651 79.1378 113.429 78.527C112.222 77.9162 110.844 77.6108 109.295 77.6108C107.733 77.6108 106.341 77.9162 105.119 78.527C103.898 79.1378 102.932 79.983 102.222 81.0625C101.526 82.1278 101.185 83.3565 101.199 84.7486C101.185 86.0838 101.511 87.2628 102.179 88.2855C102.847 89.294 103.784 90.0824 104.991 90.6506C106.213 91.2187 107.648 91.5028 109.295 91.5028ZM109.295 71.6236C110.631 71.6236 111.81 71.3537 112.832 70.8139C113.869 70.2741 114.686 69.5213 115.283 68.5554C115.879 67.5895 116.185 66.4744 116.199 65.2102C116.185 63.9602 115.886 62.8665 115.304 61.929C114.722 60.9773 113.912 60.2457 112.875 59.7344C111.838 59.2088 110.645 58.946 109.295 58.946C107.918 58.946 106.703 59.2088 105.652 59.7344C104.615 60.2457 103.805 60.9773 103.223 61.929C102.655 62.8665 102.378 63.9602 102.392 65.2102C102.378 66.4744 102.662 67.5895 103.244 68.5554C103.841 69.5071 104.658 70.2599 105.695 70.8139C106.746 71.3537 107.946 71.6236 109.295 71.6236Z" fill="white"/>
<defs>
<filter id="filter0_bdddi_1_3250" x="0" y="-5" width="182" height="192" filterUnits="userSpaceOnUse" color-interpolation-filters="sRGB">
<feFlood flood-opacity="0" result="BackgroundImageFix"/>
<feGaussianBlur in="BackgroundImageFix" stdDeviation="5"/>
<feComposite in2="SourceAlpha" operator="in" result="effect1_backgroundBlur_1_3250"/>
<feColorMatrix in="SourceAlpha" type="matrix" values="0 0 0 0 0 0 0 0 0 0 0 0 0 0 0 0 0 0 127 0" result="hardAlpha"/>
<feOffset dy="20"/>
<feGaussianBlur stdDeviation="10"/>
<feComposite in2="hardAlpha" operator="out"/>
<feColorMatrix type="matrix" values="0 0 0 0 0 0 0 0 0 0 0 0 0 0 0 0 0 0 0.1 0"/>
<feBlend mode="normal" in2="effect1_backgroundBlur_1_3250" result="effect2_dropShadow_1_3250"/>
<feColorMatrix in="SourceAlpha" type="matrix" values="0 0 0 0 0 0 0 0 0 0 0 0 0 0 0 0 0 0 127 0" result="hardAlpha"/>
<feOffset dy="5"/>
<feGaussianBlur stdDeviation="5"/>
<feComposite in2="hardAlpha" operator="out"/>
<feColorMatrix type="matrix" values="0 0 0 0 0 0 0 0 0 0 0 0 0 0 0 0 0 0 0.05 0"/>
<feBlend mode="normal" in2="effect2_dropShadow_1_3250" result="effect3_dropShadow_1_3250"/>
<feColorMatrix in="SourceAlpha" type="matrix" values="0 0 0 0 0 0 0 0 0 0 0 0 0 0 0 0 0 0 127 0" result="hardAlpha"/>
<feOffset dy="2"/>
<feGaussianBlur stdDeviation="2"/>
<feComposite in2="hardAlpha" operator="out"/>
<feColorMatrix type="matrix" values="0 0 0 0 0 0 0 0 0 0 0 0 0 0 0 0 0 0 0.05 0"/>
<feBlend mode="normal" in2="effect3_dropShadow_1_3250" result="effect4_dropShadow_1_3250"/>
<feBlend mode="normal" in="SourceGraphic" in2="effect4_dropShadow_1_3250" result="shape"/>
<feColorMatrix in="SourceAlpha" type="matrix" values="0 0 0 0 0 0 0 0 0 0 0 0 0 0 0 0 0 0 127 0" result="hardAlpha"/>
<feOffset dy="30"/>
<feGaussianBlur stdDeviation="30"/>
<feComposite in2="hardAlpha" operator="arithmetic" k2="-1" k3="1"/>
<feColorMatrix type="matrix" values="0 0 0 0 1 0 0 0 0 1 0 0 0 0 1 0 0 0 0.15 0"/>
<feBlend mode="normal" in2="shape" result="effect5_innerShadow_1_3250"/>
</filter>
<linearGradient id="paint0_linear_1_3250" x1="91" y1="5" x2="91" y2="147" gradientUnits="userSpaceOnUse">
<stop stop-opacity="0.1"/>
<stop offset="0.692708" stop-opacity="0.0677083"/>
<stop offset="1"/>
</linearGradient>
<radialGradient id="paint1_angular_1_3250" cx="0" cy="0" r="1" gradientUnits="userSpaceOnUse" gradientTransform="translate(91.0221 75.9777) rotate(60) scale(56.7226)">
<stop offset="0.392191" stop-color="white" stop-opacity="0"/>
<stop offset="0.772423" stop-color="white"/>
<stop offset="0.808184" stop-color="white" stop-opacity="0"/>
</radialGradient>
<linearGradient id="paint2_linear_1_3250" x1="157.227" y1="99.1453" x2="20.0445" y2="34.9987" gradientUnits="userSpaceOnUse">
<stop stop-color="white"/>
<stop offset="0.75" stop-color="#285299"/>
</linearGradient>
<linearGradient id="paint3_linear_1_3250" x1="152.248" y1="59.5721" x2="35.0438" y2="90.977" gradientUnits="userSpaceOnUse">
<stop stop-color="#2737CF" stop-opacity="0"/>
<stop offset="1" stop-color="#BDFCFE"/>
</linearGradient>
<linearGradient id="paint4_linear_1_3250" x1="152.248" y1="59.5721" x2="35.0438" y2="90.977" gradientUnits="userSpaceOnUse">
<stop stop-color="#2737CF" stop-opacity="0"/>
<stop offset="1" stop-color="#BDFCFE"/>
</linearGradient>
<linearGradient id="paint5_linear_1_3250" x1="152.248" y1="59.5721" x2="35.0438" y2="90.977" gradientUnits="userSpaceOnUse">
<stop stop-color="#2737CF" stop-opacity="0"/>
<stop offset="1" stop-color="#BDFCFE"/>
</linearGradient>
</defs>
</svg>
